<svg width="512" height="512" viewBox="0 0 512 512" fill="none" xmlns="http://www.w3.org/2000/svg">
<g clip-path="url(#clip0_3_8)">
<rect x="131" y="166" width="250" height="250" fill="white"/>
<path fill-rule="evenodd" clip-rule="evenodd" d="M115.2 51.2C93.9923 51.2 76.8 68.3923 76.8 89.6V422.4C76.8 443.608 93.9923 460.8 115.2 460.8H396.8C418.008 460.8 435.2 443.608 435.2 422.4V195.106C435.2 184.921 431.154 175.154 423.953 167.953L318.447 62.4471C311.246 55.2457 301.479 51.2 291.294 51.2H115.2ZM236.8 224C236.8 213.396 245.396 204.8 256 204.8C266.604 204.8 275.2 213.396 275.2 224V289.166L299.329 262.356C306.422 254.474 318.562 253.835 326.444 260.929C334.326 268.022 334.965 280.162 327.871 288.044L270.271 352.044C266.63 356.09 261.443 358.4 256 358.4C250.557 358.4 245.37 356.09 241.729 352.044L184.129 288.044C177.035 280.162 177.674 268.022 185.556 260.929C193.438 253.835 205.578 254.474 212.671 262.356L236.8 289.166V224Z" fill="#059669"/>
</g>
<defs>
<clipPath id="clip0_3_8">
<rect width="512" height="512" fill="white"/>
</clipPath>
</defs>
</svg>
